<svg version="1" xmlns="http://www.w3.org/2000/svg" width="466.667" height="466.667" viewBox="0 0 350.000000 350.000000"><path d="M36.3 65.5l.1 7.5h14.4v17.7c0 9.8.1 19.7.1 22l.1 4.3h13.7l.1-29.5.1-29.5H36.2l.1 7.5zM109.5 73.8c-.3.3-.5 6.7-.5 14.2v13.6h101.9c90.8 0 102-.2 102.3-1.6.2-.8.4-7.1.3-14V73.5l-101.8-.1c-55.9-.1-101.9.1-102.2.4zM36.2 153.2l.1 7.8h25.8l-6.7 7.7c-3.7 4.3-9 10.5-11.8 13.7-2.8 3.3-5.6 6.5-6.3 7.2-.8.7-1.2 3.7-1 8l.2 6.9 21.8.1H80v-15.5l-12.9-.3-13-.3 3.2-3.6c1.8-2 5.9-6.6 9.2-10.4 3.3-3.8 7.7-8.7 9.7-10.9 3.6-3.9 3.8-4.4 3.8-11.1v-7H36.1l.1 7.7zM109 175v14h204.5v-28H109v14zM36.6 233.8c-.9 1.5-.2 14.2.8 14.3.6.1 7.1.1 14.4.1l13.2.1v3.3c0 3.7.2 3.6-8.7 3.5H51V270h14v7l-6.2.1c-3.5 0-9.9.1-14.3.2l-8 .2-.1 7.2-.1 7.3H80v-58.9H58.6c-11.8-.1-21.7.3-22 .7zM109 262.7V277l102.2-.2 102.3-.3v-13.8c0-8.6-.3-13.7-1-13.8-.5-.1-46.6-.2-102.2-.3l-101.3-.2v14.3z"/></svg>